<svg width="189" height="189" viewBox="0 0 189 189" fill="none" xmlns="http://www.w3.org/2000/svg">
<circle cx="94.5" cy="94.5" r="94.5" fill="#5F5DEE"/>
<g clip-path="url(#clip0)">
<path d="M94.5 53.5096C90.3014 53.5096 53.5096 53.0997 53.5096 38.8701C53.5096 24.6406 90.3014 24.2307 94.5 24.2307C98.6986 24.2307 135.49 24.6406 135.49 38.8701C135.49 53.0997 98.6986 53.5096 94.5 53.5096ZM62.6681 38.8701C65.4261 41.2183 76.9971 44.7259 94.5 44.7259C112.003 44.7259 123.574 41.2183 126.332 38.8701C123.574 36.522 112.003 33.0144 94.5 33.0144C76.9971 33.0144 65.4261 36.522 62.6681 38.8701ZM126.83 39.4206H126.888H126.83Z" fill="white"/>
<path d="M94.5 76.9326C90.3014 76.9326 53.5096 76.5227 53.5096 62.2932C53.5096 59.8689 55.4772 57.9013 57.9015 57.9013C60.3257 57.9013 62.2933 59.8689 62.2933 62.2932C63.5757 64.0441 75.5742 68.1489 94.5 68.1489C113.426 68.1489 125.424 64.0441 126.83 61.7427C126.83 59.3126 128.733 57.6261 131.157 57.6261C133.587 57.6261 135.49 59.8689 135.49 62.2932C135.49 76.5227 98.6986 76.9326 94.5 76.9326Z" fill="white"/>
<path d="M94.5 100.356C90.3014 100.356 53.5096 99.9458 53.5096 85.7163C53.5096 83.292 55.4772 81.3245 57.9015 81.3245C60.3257 81.3245 62.2933 83.292 62.2933 85.7163C63.5757 87.4672 75.5742 91.5721 94.5 91.5721C113.426 91.5721 125.424 87.4672 126.83 85.1659C126.83 82.7357 128.733 81.0493 131.157 81.0493C133.587 81.0493 135.49 83.292 135.49 85.7163C135.49 99.9458 98.6986 100.356 94.5 100.356Z" fill="white"/>
<path d="M124.247 119.504C121.823 119.504 119.826 117.537 119.826 115.112C119.826 113.11 121.15 111.417 122.977 110.89C126.191 109.584 126.818 108.601 126.824 108.589L126.707 38.8702C126.707 36.4459 128.674 34.4783 131.099 34.4783C133.523 34.4783 135.49 36.4459 135.49 38.8702V109.139C135.49 113.309 132.246 116.699 125.852 119.2C125.342 119.399 124.798 119.504 124.247 119.504Z" fill="white"/>
<path d="M64.5185 119.387C63.9797 119.387 63.4352 119.287 62.9081 119.082C55.1375 116.02 53.5096 111.985 53.5096 109.139L53.5096 38.8702C53.5096 36.4459 55.4772 34.4783 57.9015 34.4783C60.3257 34.4783 62.2933 36.4459 62.2933 38.8702L62.2933 109.139C62.346 108.841 63.4 109.842 66.1288 110.908C68.3833 111.798 69.49 114.345 68.6058 116.605C67.9207 118.333 66.2694 119.387 64.5185 119.387Z" fill="white"/>
<path d="M95.9639 164.769H93.036C87.3852 164.769 82.7884 160.172 82.7884 154.522V139.882C82.7884 134.231 87.3852 129.635 93.036 129.635H95.9639C101.615 129.635 106.212 134.231 106.212 139.882V154.522C106.212 160.172 101.615 164.769 95.9639 164.769ZM93.036 138.418C92.2279 138.418 91.5721 139.074 91.5721 139.882V154.522C91.5721 155.33 92.2279 155.986 93.036 155.986H95.9639C96.772 155.986 97.4279 155.33 97.4279 154.522V139.882C97.4279 139.074 96.772 138.418 95.9639 138.418H93.036Z" fill="white"/>
<path d="M101.82 164.769C100.695 164.769 99.5711 164.342 98.7161 163.481L92.8604 157.625C91.1446 155.909 91.1446 153.128 92.8604 151.412C94.5761 149.696 97.3576 149.696 99.0733 151.412L104.929 157.268C106.645 158.984 106.645 161.765 104.929 163.481C104.068 164.342 102.944 164.769 101.82 164.769Z" fill="white"/>
<path d="M60.5834 164.769H52.0457C49.6214 164.769 47.6538 162.802 47.6538 160.377C47.6538 157.953 49.6214 155.986 52.0457 155.986H60.5834C61.5086 155.986 62.2932 154.978 62.2932 153.79C62.2932 152.601 61.5086 151.594 60.5834 151.594H58.1474C52.3619 151.594 47.6538 146.669 47.6538 140.614C47.6538 134.559 52.3619 129.635 58.1474 129.635H66.6851C69.1094 129.635 71.0769 131.602 71.0769 134.026C71.0769 136.451 69.1094 138.418 66.6851 138.418H58.1474C57.2221 138.418 56.4375 139.425 56.4375 140.614C56.4375 141.803 57.2221 142.81 58.1474 142.81H60.5834C66.3689 142.81 71.0769 147.735 71.0769 153.79C71.0769 159.844 66.3689 164.769 60.5834 164.769Z" fill="white"/>
<path d="M136.954 164.769H122.315C119.891 164.769 117.923 162.802 117.923 160.377V134.026C117.923 131.602 119.891 129.635 122.315 129.635C124.739 129.635 126.707 131.602 126.707 134.026V155.986H136.954C139.379 155.986 141.346 157.953 141.346 160.377C141.346 162.802 139.379 164.769 136.954 164.769Z" fill="white"/>
</g>
<defs>
<clipPath id="clip0">
<rect width="140.538" height="140.538" fill="white" transform="translate(24.2308 24.2307)"/>
</clipPath>
</defs>
</svg>
